<svg width="24" height="24" viewBox="0 0 24 24" fill="none" xmlns="http://www.w3.org/2000/svg">
<g clip-path="url(#clip0_11_13)">
<path d="M20.0355 14.998C20.1621 14.9984 20.2876 14.9738 20.4047 14.9255C20.5218 14.8773 20.6282 14.8064 20.7179 14.7169C20.8075 14.6274 20.8785 14.5211 20.927 14.4041C20.9754 14.2871 21.0002 14.1616 21 14.035V10.9645C21.0004 10.8377 20.9757 10.7121 20.9274 10.5949C20.8791 10.4777 20.808 10.3713 20.7184 10.2816C20.6288 10.192 20.5223 10.1209 20.4051 10.0726C20.2879 10.0243 20.1623 9.99961 20.0355 10H3.9645C3.83773 9.99961 3.71214 10.0243 3.59494 10.0726C3.47774 10.1209 3.37126 10.192 3.28162 10.2816C3.19198 10.3713 3.12095 10.4777 3.07262 10.5949C3.02429 10.7121 2.99961 10.8377 3 10.9645V14.0335C3 14.569 3.4305 14.998 3.9645 14.998H20.0355V14.998Z" fill="#FF7E1B"/>
</g>
<defs>
<clipPath id="clip0_11_13">
<rect width="18" height="6" fill="white" transform="translate(3 10)"/>
</clipPath>
</defs>
</svg>
